<svg xmlns="http://www.w3.org/2000/svg" style="display: none;"><symbol id="drupal-logo" viewBox="0 0 430.114 430.114"><title>drupal-logo</title><path id="Drupal" d="M309.033,79.982c-22.028-13.69-42.854-19.062-63.631-32.756C232.521,38.529,214.651,17.812,199.658,0 c-2.886,28.593-11.625,40.221-21.62,48.512c-21.165,16.547-34.485,21.51-52.799,31.47c-15.385,7.88-98.956,57.585-98.956,164.513 c0,106.899,90.238,185.619,190.424,185.619c100.223,0,187.124-72.508,187.124-182.319 C403.831,137.982,322.334,88.264,309.033,79.982z M310.723,388.315c-2.091,2.059-21.217,15.322-43.656,17.413 c-22.458,2.054-52.821,3.3-71.103-13.278c-2.9-2.912-2.098-7.023,0-8.676c2.074-1.685,3.733-2.931,6.242-2.931s2.056,0,3.33,0.83 c8.312,6.642,20.777,12.004,47.371,12.004c26.625,0,45.354-7.416,53.652-13.665c3.743-2.894,5.404-0.401,5.834,1.261 C312.795,382.919,313.63,385.426,310.723,388.315z M238.663,353.433c4.573-4.158,12.078-10.79,19.153-13.679 c7.066-2.913,10.771-2.492,17.446-2.492c6.646,0,13.739,0.415,18.715,3.752c4.975,3.318,7.901,10.753,9.529,14.869 c1.681,4.173,0,6.646-3.295,8.321c-2.893,1.639-3.322,0.817-6.234-4.555c-2.89-5.381-5.396-10.79-19.957-10.79 c-14.542,0-19.125,4.989-26.191,10.79c-7.066,5.787-9.567,7.864-12.074,4.555C233.268,360.896,234.099,357.564,238.663,353.433z M388.737,274.443c0,12.835-4.145,36.035-14.15,50.535c-9.945,14.524-16.176,19.919-27.862,19.079 c-14.981-1.26-44.897-47.66-64.023-48.51c-24.082-0.816-76.495,50.181-117.671,50.181c-24.957,0-32.413-3.725-40.723-9.139 c-12.494-8.699-18.736-21.953-18.325-40.192c0.446-32.343,30.759-62.558,69.036-62.959c48.617-0.43,82.341,48.024,106.843,47.632 c20.802-0.392,60.737-41.023,80.274-41.023C382.918,240.046,388.737,261.562,388.737,274.443z"/></symbol><symbol id="html5" viewBox="0 0 299.215 299.215"><title>html5</title><path id="XMLID_107_" d="M22.347,0c-2.75,0-4.799,2.241-4.555,4.98l23.184,260.047c0.244,2.739,2.611,5.582,5.262,6.318 l98.381,27.316c2.65,0.736,6.986,0.736,9.637,0.002l98.68-27.361c2.65-0.735,5.02-3.578,5.264-6.316L281.422,4.98 c0.246-2.739-1.805-4.98-4.555-4.98H22.347z M232.049,59.641c-0.219,2.443-0.598,6.684-0.842,9.423l-0.611,6.823 c-0.246,2.738-0.596,6.654-0.781,8.701c-0.184,2.048-0.359,3.723-0.391,3.723c-0.031,0-2.307,0-5.057,0h-69.76 c-2.75,0-5.023,0-5.053,0s-2.305,0-5.055,0h-36.74c-2.75,0-4.799,2.241-4.555,4.98l2.143,23.955c0.244,2.738,2.695,4.98,5.445,4.98 H144.5c2.75,0,5.025,0,5.055,0s2.303,0,5.053,0h57.939c2.75,0,7.006,0,9.457,0c2.449,0,4.273,1.999,4.051,4.442 c-0.223,2.443-0.604,6.685-0.848,9.423l-6.891,77.228c-0.246,2.739-0.557,6.238-0.691,7.776c-0.137,1.537-2.416,3.396-5.066,4.131 l-58.133,16.119c-2.65,0.734-4.852,1.342-4.893,1.351c-0.041,0.009-2.242-0.586-4.893-1.321l-58.195-16.148 c-2.65-0.735-5.018-3.578-5.262-6.317l-3.746-42.045c-0.244-2.739,1.807-4.98,4.557-4.98h5.311c2.75,0,7.25,0,10,0h7.92 c2.75,0,5.199,2.241,5.445,4.98l1.469,16.459c0.244,2.739,2.615,5.566,5.271,6.283l27.221,7.351 c2.654,0.717,4.836,1.304,4.848,1.304s2.193-0.588,4.848-1.305l27.27-7.369c2.654-0.717,5.027-3.545,5.273-6.283l2.957-32.976 c0.246-2.739-1.803-4.98-4.553-4.98h-30.666c-2.75,0-5.023,0-5.053,0s-2.305,0-5.055,0H80.511c-2.75,0-5.199-2.242-5.443-4.98 l-7.256-81.306c-0.244-2.739-0.623-6.979-0.842-9.423c-0.217-2.443,1.854-4.442,4.604-4.442H144.5c2.75,0,5.025,0,5.055,0 s2.303,0,5.053,0h72.838C230.195,55.198,232.267,57.197,232.049,59.641z"/></symbol><symbol id="joomla" viewBox="0 0 533.333 533.333"><title>joomla</title><path d="M138.544,144.103c17.1-17.106,44.792-17.106,61.877-0.016l4.076,4.097l52.659-52.685l-4.101-4.104 c-30.013-30.052-72.143-40.562-110.636-31.522C136.901,25.924,107.478,0.017,72.016,0C32.615,0,0.686,32.001,0.677,71.437 c0,34.029,23.745,62.5,55.553,69.703c-12.051,40.338-2.209,85.851,29.607,117.7l118.66,118.698l52.602-52.714L138.448,206.131 C121.426,189.088,121.395,161.274,138.544,144.103z M532.664,71.437C532.671,31.978,500.726,0,461.317,0 c-36.06,0-65.874,26.794-70.667,61.583c-40.144-11.804-85.306-1.821-117.001,29.9L154.983,210.18l52.657,52.694l118.628-118.675 c17.157-17.17,44.785-17.139,61.813-0.096c17.084,17.099,17.084,44.851-0.016,61.956l-4.058,4.082l52.608,52.733l4.093-4.129 c31.488-31.545,41.499-76.435,30.006-116.478C505.689,137.666,532.664,107.702,532.664,71.437z M472.013,391.18 c9.428-38.781-1.029-81.419-31.306-111.719L322.223,160.715l-52.657,52.667l118.5,118.756c17.156,17.186,17.116,44.841,0.096,61.9 c-17.083,17.09-44.794,17.09-61.894-0.017l-4.045-4.058l-52.602,52.732l4.027,4.023c32.04,32.082,77.926,41.896,118.421,29.421 c6.579,32.649,35.382,57.191,69.926,57.191c39.378,0,71.338-31.952,71.338-71.419C533.333,425.872,506.677,396.051,472.013,391.18z M318.929,275.356L200.421,394.102c-17.037,17.068-44.809,17.099-61.95-0.064c-17.093-17.136-17.1-44.843-0.023-61.962l4.066-4.05 l-52.649-52.668l-4.028,4.017C55.233,310,44.921,353.246,54.875,392.385C23.417,399.811,0,428.131,0,461.914 c-0.008,39.45,31.944,71.419,71.345,71.419c33.906-0.016,62.285-23.655,69.552-55.407c38.907,9.663,81.77-0.678,112.159-31.123 L371.54,328.075L318.929,275.356z"/></symbol><symbol id="paintbrush" viewBox="0 0 370.589 370.589"><title>paintbrush</title><path d="M5.806,224.753c-7.741,7.741-7.741,20.291,0.002,28.034l10.114,10.114l24.18-9.46L30.99,277.97l50.811,50.812 l39.014-22.66l-19.858,41.815l16.843,16.844c7.743,7.743,20.293,7.743,28.034,0.002l91.812-91.812L97.618,132.941L5.806,224.753z"/><path d="M358.83,11.841l-0.082-0.083c-9.66-9.66-21.981-13.478-35.631-11.043c-27.59,4.924-56.519,34.861-77.384,80.087 c-5.788,12.546-13.997,19.607-25.101,21.588c-21.311,3.803-48.293-11.741-64.344-27.792c-3.362-3.362-8.814-3.361-12.176,0.001 l-16.685,16.686l24.651,24.651c3.202,3.202,3.202,8.392,0,11.594c-3.202,3.202-8.393,3.202-11.594,0l-24.651-24.651l-6.178,6.178 c-3.364,3.364-3.364,8.815-0.002,12.178l139.703,139.703c3.361,3.361,8.812,3.36,12.177-0.002l34.458-34.458 c3.361-3.362,3.362-8.814,0.001-12.177c-16.051-16.051-31.595-43.034-27.792-64.344c1.98-11.103,9.042-19.312,21.588-25.1 c45.226-20.865,75.163-49.793,80.087-77.383C372.309,33.822,368.49,21.501,358.83,11.841z M343.056,48.746 c-5.857,5.857-15.354,5.857-21.213,0c-5.856-5.858-5.856-15.355,0-21.213c5.858-5.858,15.355-5.858,21.213,0 C348.914,33.391,348.914,42.888,343.056,48.746z"/></symbol><symbol id="responsive" viewBox="0 0 501.551 501.551"><title>responsive</title><path style="fill:#40596B;" d="M480.653,80.457H20.898C9.404,80.457,0,89.861,0,101.355V409.6c0,11.494,9.404,20.898,20.898,20.898 h459.755c11.494,0,20.898-9.404,20.898-20.898V101.355C501.551,89.861,492.147,80.457,480.653,80.457z"/><rect x="31.347" y="111.804" style="fill:#FFFFFF;" width="438.857" height="257.045"/><rect x="154.645" y="431.543" style="fill:#CDD6E0;" width="191.216" height="56.425"/><rect x="97.176" y="487.967" style="fill:#F2F2F2;" width="307.2" height="13.584"/><rect x="154.645" y="431.543" style="fill:#ACB3BA;" width="191.216" height="15.673"/><path style="fill:#334A5E;" d="M478.563,305.11H368.849c-6.269,0-10.449,4.18-10.449,10.449v175.543 c0,6.269,4.18,10.449,10.449,10.449h109.714c6.269,0,10.449-4.18,10.449-10.449V315.559 C489.012,310.335,484.833,305.11,478.563,305.11z"/><rect x="374.387" y="333.855" style="fill:#FFFFFF;" width="99.265" height="133.747"/><polygon style="fill:#F2F2F2;" points="374.073,467.069 473.339,333.322 473.339,467.069 "/><g> <path style="fill:#4CDBC4;" d="M439.902,314.514H407.51c-1.045,0-2.09,1.045-2.09,2.09s1.045,2.09,2.09,2.09h32.392 c1.045,0,2.09-1.045,2.09-2.09S440.947,314.514,439.902,314.514z"/> <circle style="fill:#4CDBC4;" cx="423.184" cy="481.698" r="7.314"/> </g><ellipse style="fill:#F2F2F2;" cx="250.776" cy="400.196" rx="12.539" ry="12.539"/><path style="fill:#84DBFF;" d="M371.984,87.771c0-2.09,0-4.18,0-6.269C371.984,36.571,335.412,0,290.482,0 c-26.122,0-49.11,12.539-64.784,31.347c-5.224-1.045-11.494-2.09-16.718-2.09c-32.392,0-59.559,22.988-65.829,53.29 c-19.853,4.18-34.482,21.943-34.482,43.886c0,25.078,19.853,44.931,44.931,44.931h195.396c25.078,0,44.931-19.853,44.931-44.931 C392.882,109.714,384.522,96.131,371.984,87.771z"/><path style="fill:#40596B;" d="M351.086,194.351v-33.437l-16.718-6.269c-2.09-7.314-4.18-13.584-8.359-19.853l7.314-15.673 L309.29,95.086l-15.673,7.314c-6.269-3.135-12.539-6.269-19.853-8.359l-6.269-16.718h-33.437l-6.269,16.718 c-7.314,2.09-13.584,4.18-19.853,8.359l-15.673-7.314l-24.033,24.033l7.314,15.673c-3.135,6.269-6.269,12.539-8.359,19.853 l-16.718,6.269v33.437l16.718,6.269c2.09,7.314,4.18,13.584,8.359,19.853l-7.314,15.673l24.033,24.033l15.673-7.314 c6.269,3.135,12.539,6.269,19.853,8.359l6.269,16.718h33.437l6.269-16.718c7.314-2.09,13.584-4.18,19.853-8.359l15.673,7.314 l24.033-24.033l-7.314-15.673c3.135-6.269,6.269-12.539,8.359-19.853L351.086,194.351z M291.527,177.633 c0,22.988-18.808,40.751-40.751,40.751c-22.988,0-40.751-17.763-40.751-40.751s18.808-40.751,40.751-40.751 C273.763,136.882,291.527,154.645,291.527,177.633z"/><path style="fill:#FF7058;" d="M294.661,133.747c-24.033-24.033-62.694-24.033-86.727,0s-24.033,62.694,0,86.727 c24.033,24.033,62.694,24.033,86.727,0C318.694,197.486,318.694,157.78,294.661,133.747z M280.033,206.89 c-15.673,15.673-41.796,15.673-57.469,0s-15.673-41.796,0-57.469s41.796-15.673,57.469,0 C295.706,165.094,295.706,190.171,280.033,206.89z"/></symbol><symbol id="website-design-symbol" viewBox="0 0 100 100"><title>website-design-symbol</title><path d="M62.924,94.729c-1.732-1.274-1.918-3.188-1.918-3.188l-0.65-4.155H39.642l-0.652,4.152c0,0-0.181,1.916-1.914,3.19 c-1.732,1.274-3.099,2.368-1.732,2.554c1.317,0.178,13.74,0.016,14.656,0c0.918,0.016,13.338,0.178,14.654,0 C66.02,97.098,64.652,96.006,62.924,94.729z"/><g> <path d="M26.666,61.538c5.534-0.043,6.223-1.377,8.027-6.933c3.327-8.768,18.309,2.296,9.024,6.136 C34.432,64.583,21.132,61.581,26.666,61.538z"/> <path d="M83.41,3.756c-2.688-2.164-7.135-1.098-9.938,2.38L45.082,46.472c-2.803,3.477-2.789,2.813-0.104,4.975 c2.685,2.164,2.038,2.319,4.841-1.158l33.376-36.317C85.998,10.492,86.096,5.919,83.41,3.756z M76.109,8.584 c0,0-0.416-0.483-1.799-1.589c2.074-3.387,6.15-2.766,6.15-2.766C76.596,6.511,76.109,8.584,76.109,8.584z"/> </g><path d="M96,17.386H83.516l-5.515,6h16v48h-88v-48h51.19l4.227-6H4c-2.209,0-4,1.791-4,4v58c0,2.209,1.791,4,4,4h92 c2.209,0,4-1.791,4-4v-58C100,19.177,98.209,17.386,96,17.386z"/></symbol><symbol id="wordpress-logo-button" viewBox="0 0 100 100"><title>wordpress-logo-button</title><path d="M50,0C22.431,0,0,22.432,0,50c0,27.57,22.431,50,50,50c27.568,0,50-22.43,50-50C100,22.432,77.568,0,50,0z M50,2.281 c26.305,0,47.688,21.415,47.688,47.719c0,26.305-21.383,47.688-47.688,47.688C23.696,97.688,2.312,76.305,2.312,50 C2.312,23.696,23.696,2.281,50,2.281z M50,7.125c-14.985,0-28.175,7.669-35.844,19.312c1.007,0.032,1.977,0.062,2.781,0.062 c4.485,0,11.406-0.562,11.406-0.562c2.311-0.135,2.591,3.258,0.281,3.531c0,0-2.322,0.302-4.906,0.438l15.625,46.438l9.375-28.156 L42.03,29.907c-2.311-0.136-4.5-0.438-4.5-0.438c-2.312-0.137-2.031-3.667,0.281-3.531c0,0,7.067,0.562,11.281,0.562 c4.484,0,11.438-0.562,11.438-0.562c2.312-0.135,2.594,3.258,0.281,3.531c0,0-2.324,0.302-4.906,0.438L71.406,76l4.281-14.312 c1.852-5.936,3.279-10.174,3.279-13.844c0-5.303-1.898-8.987-3.529-11.844c-2.174-3.535-4.221-6.528-4.221-10.062 c0-3.942,2.977-7.594,7.188-7.594c0.189,0,0.378,0.021,0.562,0.031C71.338,11.383,61.166,7.125,50,7.125z M87.625,29.406 c0.184,1.366,0.312,2.858,0.312,4.438c0,4.351-0.834,9.225-3.281,15.344L71.562,87.062C84.312,79.628,92.875,65.823,92.875,50 C92.875,42.543,90.973,35.515,87.625,29.406z M10.812,32.531C8.433,37.865,7.125,43.782,7.125,50 c0,16.977,9.848,31.643,24.156,38.594L10.812,32.531z M50.75,53.75L37.875,91.156c3.844,1.131,7.916,1.719,12.125,1.719 c4.994,0,9.792-0.838,14.25-2.406c-0.113-0.184-0.227-0.382-0.312-0.594L50.75,53.75z"/></symbol></svg>